<svg width="5286" height="1119" viewBox="0 0 5286 1119" fill="none" xmlns="http://www.w3.org/2000/svg">
<path d="M610.312 887H518.516L534.922 861.609L322.031 268.641V847.156L358.75 887H267.344L304.062 847.156V218.641L267.344 180.75H358.75L344.688 206.141L575.938 849.891V220.984L539.219 181.141H630.625L593.906 220.984V869.422L610.312 887ZM856.406 887C824.896 887 796.12 876.062 770.078 854.188C744.297 832.312 723.724 803.016 708.359 766.297C692.995 729.318 685.312 688.432 685.312 643.641C685.312 598.849 692.995 558.094 708.359 521.375C723.724 484.396 744.297 454.969 770.078 433.094C796.12 410.958 824.896 399.891 856.406 399.891C887.917 399.891 916.562 410.958 942.344 433.094C968.385 454.969 989.089 484.396 1004.45 521.375C1019.82 558.094 1027.5 598.849 1027.5 643.641C1027.5 688.432 1019.82 729.318 1004.45 766.297C989.089 803.016 968.385 832.312 942.344 854.188C916.562 876.062 887.917 887 856.406 887ZM875.938 867.859L885.312 867.078C915.521 862.391 939.609 842.339 957.578 806.922C975.807 771.505 984.922 728.406 984.922 677.625C984.922 661.219 983.88 644.422 981.797 627.234C976.328 587.651 966.302 552.234 951.719 520.984C937.396 489.734 920.078 464.995 899.766 446.766C879.714 428.276 858.75 419.031 836.875 419.031L827.5 419.812C797.552 424.76 773.464 444.943 755.234 480.359C737.005 515.516 727.891 558.354 727.891 608.875C727.891 625.281 729.062 642.208 731.406 659.656C736.875 699.24 746.771 734.656 761.094 765.906C775.417 797.156 792.604 822.026 812.656 840.516C832.969 858.745 854.062 867.859 875.938 867.859ZM856.406 704.969L843.516 681.141C837.526 670.724 829.323 662.521 818.906 656.531L795.078 643.641L818.906 630.359C829.323 624.63 837.526 616.557 843.516 606.141L856.406 582.312L869.688 606.141C875.417 616.557 883.49 624.63 893.906 630.359L917.734 643.641L893.906 656.531C883.49 662.521 875.417 670.724 869.688 681.141L856.406 704.969ZM1250.55 889.734C1194.3 889.734 1154.84 867.208 1132.19 822.156C1114.48 787.521 1105.62 741.036 1105.62 682.703V425.281L1082.19 399.891H1173.98L1150.16 425.281V670.594C1150.16 750.542 1161.35 806.271 1183.75 837.781C1200.68 861.219 1222.94 872.938 1250.55 872.938C1261.22 872.938 1270.86 871.896 1279.45 869.812C1300.03 866.167 1320.21 854.578 1340 835.047C1360.05 815.516 1374.38 789.995 1382.97 758.484V425.281L1356.41 399.891H1447.81L1427.89 425.281V815.906C1427.89 828.146 1428.8 838.823 1430.62 847.938C1432.45 857.052 1435.96 864.083 1441.17 869.031C1446.38 873.979 1454.06 876.453 1464.22 876.453V887C1436.35 887 1415.78 881.531 1402.5 870.594C1389.48 859.396 1382.97 841.167 1382.97 815.906V800.281C1367.08 827.885 1347.68 849.76 1324.77 865.906C1302.11 881.792 1277.37 889.734 1250.55 889.734ZM1687.27 887C1679.45 887 1670.47 886.74 1660.31 886.219C1650.16 885.438 1639.61 884.266 1628.67 882.703C1617.73 880.88 1606.67 878.667 1595.47 876.062C1584.27 873.198 1573.72 869.812 1563.83 865.906C1553.93 861.74 1545.08 856.922 1537.27 851.453C1529.45 845.984 1523.33 839.734 1518.91 832.703L1528.28 744.031C1531.93 764.604 1538.31 782.833 1547.42 798.719C1556.54 814.344 1567.99 827.495 1581.8 838.172C1595.86 848.589 1611.88 856.531 1629.84 862C1648.07 867.208 1668.12 869.812 1690 869.812C1699.11 869.812 1708.88 869.292 1719.3 868.25C1729.97 867.208 1740.52 865.385 1750.94 862.781C1761.61 859.917 1771.9 856.271 1781.8 851.844C1791.69 847.156 1800.42 841.297 1807.97 834.266C1815.52 827.234 1821.51 818.901 1825.94 809.266C1830.62 799.37 1832.97 787.911 1832.97 774.891C1832.97 756.401 1828.41 740.906 1819.3 728.406C1810.44 715.646 1798.59 704.839 1783.75 695.984C1769.17 686.87 1752.37 679.057 1733.36 672.547C1714.61 665.776 1695.47 659.266 1675.94 653.016C1656.41 646.766 1637.14 640.125 1618.12 633.094C1599.38 625.802 1582.58 617.208 1567.73 607.312C1553.15 597.156 1541.3 585.177 1532.19 571.375C1523.33 557.312 1518.91 540.125 1518.91 519.812C1518.91 498.458 1523.85 480.229 1533.75 465.125C1543.65 449.76 1556.41 437.26 1572.03 427.625C1587.66 417.99 1604.97 410.958 1623.98 406.531C1643.26 402.104 1662.01 399.891 1680.23 399.891C1689.87 399.891 1700.68 400.542 1712.66 401.844C1724.9 403.146 1737.01 405.49 1748.98 408.875C1760.96 412 1772.16 416.297 1782.58 421.766C1792.99 427.234 1801.2 434.135 1807.19 442.469L1792.73 528.406C1789.35 492.729 1778.28 465.516 1759.53 446.766C1740.78 427.755 1713.44 418.25 1677.5 418.25C1663.96 418.25 1649.11 419.812 1632.97 422.938C1616.82 425.802 1601.72 430.75 1587.66 437.781C1573.85 444.812 1562.27 454.057 1552.89 465.516C1543.52 476.714 1538.83 490.646 1538.83 507.312C1538.83 523.198 1543.26 536.349 1552.11 546.766C1561.22 557.182 1573.07 566.036 1587.66 573.328C1602.24 580.62 1618.91 586.87 1637.66 592.078C1656.41 597.286 1675.42 602.755 1694.69 608.484C1714.22 613.953 1733.36 620.333 1752.11 627.625C1770.86 634.656 1787.53 643.771 1802.11 654.969C1816.69 665.906 1828.41 679.448 1837.27 695.594C1846.38 711.479 1850.94 731.141 1850.94 754.578C1850.94 778.536 1846.25 798.979 1836.88 815.906C1827.5 832.573 1815.13 846.245 1799.77 856.922C1784.4 867.339 1766.95 875.021 1747.42 879.969C1727.89 884.656 1707.84 887 1687.27 887ZM2268.52 887H2176.72L2199.77 862L2200.55 617.859C2200.55 538.432 2189.35 483.094 2166.95 451.844C2150.03 428.406 2127.89 416.688 2100.55 416.688C2089.61 416.688 2079.84 417.729 2071.25 419.812C2053.02 422.938 2034.79 432.573 2016.56 448.719C1998.59 464.604 1984.4 485.438 1973.98 511.219L1974.38 862L1997.03 887H1905.62L1928.28 862L1929.06 206.141L1905.62 180.75H1997.03L1973.98 206.141V478.797C1989.87 454.318 2008.62 435.047 2030.23 420.984C2051.85 406.922 2075.16 399.891 2100.16 399.891C2156.41 399.891 2195.86 422.286 2218.52 467.078C2236.22 501.714 2245.08 548.068 2245.08 606.141L2245.47 862L2268.52 887ZM2384.92 361.219L2372.03 337.391C2366.3 326.974 2358.1 318.771 2347.42 312.781L2323.59 299.891L2347.42 286.609C2358.1 280.88 2366.3 272.807 2372.03 262.391L2384.92 238.562L2398.2 262.391C2403.93 272.807 2412.14 280.88 2422.81 286.609L2446.64 299.891L2422.81 312.781C2412.14 318.771 2403.93 326.974 2398.2 337.391L2384.92 361.219ZM2431.02 887H2339.22L2362.66 862V425.281L2339.22 399.891H2431.02L2407.58 425.281V862L2431.02 887ZM2865 887H2773.2L2796.25 862L2796.64 617.859C2796.64 538.432 2785.44 483.094 2763.05 451.844C2746.12 428.406 2723.98 416.688 2696.64 416.688C2685.7 416.688 2675.94 417.729 2667.34 419.812C2649.38 422.938 2631.28 432.573 2613.05 448.719C2595.08 464.604 2580.76 485.438 2570.08 511.219L2570.47 862L2593.52 887H2501.72L2524.77 862L2525.16 425.281L2501.72 399.891H2593.52L2570.08 425.281V478.797C2585.96 454.318 2604.71 435.047 2626.33 420.984C2647.94 406.922 2671.25 399.891 2696.25 399.891C2752.5 399.891 2792.08 422.286 2815 467.078C2832.71 501.974 2841.56 548.328 2841.56 606.141L2841.95 862L2865 887ZM3619.69 887H3250.16L3273.59 861.609V206.141L3250.16 180.75H3619.69V235.828L3579.45 198.719H3318.52V524.891H3465.78L3505.62 488.172V579.969L3465.78 542.859H3318.52V869.031H3579.45L3619.69 832.312V887ZM3873.2 887C3846.9 887 3822.42 879.318 3799.77 863.953C3777.37 848.589 3758.23 827.625 3742.34 801.062L3742.73 862L3765.78 887H3674.38L3697.03 862L3697.42 206.141L3674.38 180.75H3765.78L3742.34 206.141V486.219C3758.23 459.396 3777.37 438.302 3799.77 422.938C3822.42 407.573 3846.9 399.891 3873.2 399.891C3904.71 399.891 3933.36 410.958 3959.14 433.094C3985.18 454.969 4005.89 484.396 4021.25 521.375C4036.61 558.094 4044.3 598.849 4044.3 643.641C4044.3 688.432 4036.61 729.318 4021.25 766.297C4005.89 803.016 3985.18 832.312 3959.14 854.188C3933.36 876.062 3904.71 887 3873.2 887ZM3892.34 867.859L3901.72 867.078C3931.93 862.391 3956.15 842.469 3974.38 807.312C3992.6 771.896 4001.72 728.797 4001.72 678.016C4001.72 661.609 4000.55 644.682 3998.2 627.234C3992.73 587.651 3982.84 552.234 3968.52 520.984C3954.19 489.734 3936.88 464.995 3916.56 446.766C3896.51 428.276 3875.55 419.031 3853.67 419.031L3844.3 419.812C3814.09 424.76 3789.87 444.943 3771.64 480.359C3753.67 515.776 3744.69 558.745 3744.69 609.266C3744.69 625.672 3745.73 642.469 3747.81 659.656C3753.28 699.24 3763.18 734.656 3777.5 765.906C3792.08 797.156 3809.4 822.026 3829.45 840.516C3849.51 858.745 3870.47 867.859 3892.34 867.859ZM4209.53 888.562C4189.48 888.562 4171.12 884.656 4154.45 876.844C4137.79 868.771 4124.38 856.271 4114.22 839.344C4104.32 822.156 4099.38 799.891 4099.38 772.547C4099.38 749.891 4104.32 731.271 4114.22 716.688C4124.11 702.104 4137.27 690.385 4153.67 681.531C4170.34 672.677 4188.7 665.516 4208.75 660.047C4229.06 654.578 4249.9 649.76 4271.25 645.594C4290 641.688 4308.1 637.521 4325.55 633.094C4364.09 622.938 4390.52 608.484 4404.84 589.734C4412.92 579.057 4416.95 565.516 4416.95 549.109V533.875C4416.95 507.312 4411.22 485.568 4399.77 468.641C4388.57 451.714 4373.85 438.953 4355.62 430.359C4337.66 421.766 4317.34 417.339 4294.69 417.078C4264.22 417.078 4238.83 425.802 4218.52 443.25C4198.46 460.698 4186.09 484.656 4181.41 515.125L4203.28 538.562H4134.53C4134.53 528.667 4135.57 519.292 4137.66 510.438C4146.51 475.021 4166.3 447.807 4197.03 428.797C4228.02 409.526 4261.74 399.891 4298.2 399.891C4325.55 399.891 4351.72 405.62 4376.72 417.078C4401.72 428.536 4422.16 444.292 4438.05 464.344C4453.93 484.396 4461.88 507.573 4461.88 533.875L4462.27 862L4485.31 887H4393.52L4416.56 862L4416.95 736.219C4409.92 765.646 4395.34 791.818 4373.2 814.734C4351.07 837.391 4325.29 855.359 4295.86 868.641C4266.43 881.922 4237.66 888.562 4209.53 888.562ZM4245.08 856.922C4269.56 856.922 4294.3 850.542 4319.3 837.781C4344.56 825.021 4366.04 805.88 4383.75 780.359C4401.72 754.578 4412.79 722.417 4416.95 683.875V592.859C4404.71 613.432 4385.96 628.797 4360.7 638.953C4335.44 649.109 4308.36 657.573 4279.45 664.344C4262.01 668.51 4245.34 673.068 4229.45 678.016C4213.57 682.703 4199.24 688.562 4186.48 695.594C4173.98 702.625 4163.96 711.479 4156.41 722.156C4148.85 732.833 4145.08 746.115 4145.08 762C4145.08 783.094 4149.64 800.672 4158.75 814.734C4167.86 828.797 4179.97 839.344 4195.08 846.375C4210.44 853.406 4227.11 856.922 4245.08 856.922ZM4910.31 887H4818.52L4841.95 861.609V801.062C4826.07 827.625 4806.8 848.589 4784.14 863.953C4761.74 879.318 4737.53 887 4711.48 887C4679.97 887 4651.2 876.062 4625.16 854.188C4599.38 832.312 4578.67 803.016 4563.05 766.297C4547.68 729.318 4540 688.432 4540 643.641C4540 598.849 4547.68 558.094 4563.05 521.375C4578.67 484.396 4599.38 454.969 4625.16 433.094C4651.2 410.958 4679.97 399.891 4711.48 399.891C4737.53 399.891 4761.74 407.573 4784.14 422.938C4806.8 438.302 4826.07 459.396 4841.95 486.219V206.141L4818.52 180.75H4910.31L4886.88 206.141V861.609L4910.31 887ZM4730.62 867.859L4740 867.078C4770.21 862.391 4794.43 842.469 4812.66 807.312C4830.89 771.896 4840 728.797 4840 678.016C4840 645.724 4836.09 614.214 4828.28 583.484C4820.47 552.495 4809.66 524.76 4795.86 500.281C4782.32 475.542 4766.56 455.88 4748.59 441.297C4730.89 426.453 4712.01 419.031 4691.95 419.031L4682.58 419.812C4652.37 424.76 4628.15 444.943 4609.92 480.359C4591.95 515.776 4582.97 558.745 4582.97 609.266C4582.97 641.818 4586.88 673.458 4594.69 704.188C4602.5 734.917 4613.18 762.651 4626.72 787.391C4640.26 811.87 4655.89 831.401 4673.59 845.984C4691.56 860.568 4710.57 867.859 4730.62 867.859ZM5026.33 361.219L5013.44 337.391C5007.71 326.974 4999.51 318.771 4988.83 312.781L4965 299.891L4988.83 286.609C4999.51 280.88 5007.71 272.807 5013.44 262.391L5026.33 238.562L5039.61 262.391C5045.34 272.807 5053.54 280.88 5064.22 286.609L5088.05 299.891L5064.22 312.781C5053.54 318.771 5045.34 326.974 5039.61 337.391L5026.33 361.219ZM5072.42 887H4980.62L5004.06 862V425.281L4980.62 399.891H5072.42L5048.98 425.281V862L5072.42 887Z" fill="#010101"/>
<path d="M5198.15 0C5180.32 11.5056 5162.2 22.6729 5150.09 40.8468C5151.03 51.097 5153.29 61.3849 5156.33 71.7603C5159.84 70.9508 5163.44 70.5429 5167.05 70.5446C5169.59 70.5446 5172.09 70.7465 5174.52 71.1311L5181.17 41.7547L5190.44 43.8524L5183.72 73.5502C5188.99 75.5234 5193.87 78.4106 5198.14 82.0792C5204.74 75.2725 5211.74 68.5746 5219.34 62.1158C5218.09 39.4745 5209.82 19.1729 5198.15 0H5198.15ZM5084.55 31.9837C5082.42 31.9993 5080.29 32.0559 5078.15 32.1535C5078.14 53.0401 5080.5 73.9276 5090.16 94.8152L5090.3 94.5537C5100.18 99.9423 5110.21 104.298 5120.4 107.945C5122.04 100.607 5125.37 93.8981 5129.96 88.2516L5108.43 67.2089L5115.08 60.4109L5136.65 81.4993C5139.84 78.8592 5143.36 76.6438 5147.12 74.9083C5144.22 64.7226 5141.98 54.4638 5140.86 44.0808C5122.09 35.0625 5103.32 31.8529 5084.55 31.9837H5084.55ZM5228.85 66.5655C5220.14 73.7069 5212.22 81.2653 5204.77 89.0313C5208.19 93.4249 5210.82 98.3839 5212.54 103.684L5242.25 94.7979L5244.98 103.904L5214.54 113.005C5215.16 118.519 5214.82 124.099 5213.52 129.493C5223.74 131.487 5234.19 133.649 5244.89 136.216C5262.53 125.154 5275.93 108.637 5286 87.8457C5267.17 75.744 5248.47 67.7745 5228.85 66.565L5228.85 66.5655ZM5167.05 80.0507C5162.95 80.0488 5158.87 80.7041 5154.98 81.9917C5156.3 82.5115 5157.63 83.3666 5158.9 84.6224C5168.6 94.245 5154.08 108.18 5145.04 98.4789C5142.24 95.4789 5141.58 92.0888 5142.27 89.1209C5134.01 96.1336 5128.77 106.6 5128.77 118.332C5128.77 125.797 5130.89 132.746 5134.56 138.624C5135.34 137.101 5136.58 135.834 5138.08 135.07C5135.37 133.351 5133.46 130.317 5133.62 125.996C5134 115.024 5146.37 112.319 5151.88 118.498C5152.76 114.581 5156.01 111.231 5161.72 111.191C5175.38 111.136 5174.97 131.255 5161.71 130.789C5158.51 130.677 5156.07 129.474 5154.38 127.722C5153.77 132.691 5150.41 135.574 5146.57 136.45C5146.71 136.58 5146.86 136.702 5147 136.844C5147.83 137.664 5148.42 138.524 5148.83 139.395C5152.24 137.155 5156.98 137.02 5161.09 141.101C5166.31 146.279 5164.51 152.701 5160.33 156.022C5162.55 156.415 5164.8 156.614 5167.05 156.617C5171.73 156.617 5176.2 155.781 5180.34 154.257C5178.84 153.771 5177.36 152.848 5176 151.392C5170.8 145.808 5172.97 138.881 5177.59 135.835C5175.69 127.492 5182.5 119.391 5190.55 119.523C5193.7 119.574 5197.03 120.886 5200.11 123.938C5201.86 125.682 5203.03 127.529 5203.71 129.391C5204.79 125.803 5205.33 122.078 5205.33 118.333C5205.33 97.1336 5188.25 80.0502 5167.05 80.0502L5167.05 80.0507ZM5181.34 94.837C5184.42 94.8182 5187.49 96.63 5188.63 100.85C5191.46 111.239 5176.07 115.029 5173.72 104.847C5172.32 98.8019 5176.85 94.8645 5181.34 94.837H5181.34ZM5087.58 103.876C5068.26 117.237 5057.28 134.772 5046 152.154C5066.26 163.534 5086.74 173.827 5109.32 173.593C5118.36 167.516 5126.57 160.601 5134.33 153.12C5130.3 149.33 5126.95 144.874 5124.44 139.948L5099.71 147.341L5096.99 138.233L5120.98 131.059C5119.84 126.914 5119.26 122.633 5119.26 118.332C5119.26 118.107 5119.26 117.882 5119.27 117.656C5108.6 113.921 5098.04 109.445 5087.58 103.875L5087.58 103.876ZM5210.32 138.603C5208.76 141.912 5206.83 145.031 5204.56 147.899L5227.84 170.659L5221.2 177.456L5197.96 154.739C5194.67 157.537 5191.02 159.879 5187.11 161.7C5190.02 173.152 5192.09 184.845 5192.72 196.839C5211.98 206.089 5232.54 208.853 5253.85 207.846C5254.82 185.574 5252.02 164.434 5242.29 145.371C5231.44 142.785 5220.8 140.615 5210.32 138.603H5210.32ZM5142.06 159.043C5133.27 167.525 5123.85 175.421 5113.27 182.376C5115.8 201.583 5123.86 220.791 5133.85 240C5152.71 227.392 5170.04 213.557 5183.17 196.352C5182.51 185.748 5180.58 175.276 5177.88 164.882C5172.94 166.031 5167.85 166.386 5162.81 165.932L5155.81 196.823L5146.54 194.724L5153.46 164.149C5149.45 162.956 5145.62 161.239 5142.06 159.042L5142.06 159.043Z" fill="black"/>
<path d="M152.153 879C134.323 890.506 116.205 901.673 104.09 919.847C105.026 930.097 107.294 940.385 110.326 950.76C113.843 949.951 117.44 949.543 121.049 949.545C123.591 949.545 126.086 949.747 128.521 950.131L135.171 920.755L144.443 922.852L137.72 952.55C142.991 954.523 147.872 957.411 152.139 961.079C158.738 954.272 165.738 947.575 173.343 941.116C172.086 918.474 163.816 898.173 152.152 879H152.153ZM38.5538 910.984C36.4202 910.999 34.2866 911.056 32.153 911.154C32.1397 932.04 34.4999 952.928 44.157 973.815L44.2994 973.554C54.1839 978.942 64.2052 983.298 74.4031 986.945C76.0383 979.607 79.3674 972.898 83.9554 967.252L62.4321 946.209L69.0765 939.411L90.6466 960.499C93.8389 957.859 97.3597 955.644 101.121 953.908C98.2229 943.723 95.9752 933.464 94.8577 923.081C76.0897 914.062 57.3217 910.853 38.5532 910.984H38.5538ZM182.848 945.565C174.14 952.707 166.216 960.265 158.765 968.031C162.19 972.425 164.82 977.384 166.536 982.684L196.254 973.798L198.977 982.904L168.54 992.005C169.162 997.519 168.816 1003.1 167.518 1008.49C177.744 1010.49 188.187 1012.65 198.892 1015.22C216.532 1004.15 229.928 987.637 240 966.846C221.174 954.744 202.472 946.775 182.849 945.565L182.848 945.565ZM121.049 959.051C116.947 959.049 112.872 959.704 108.977 960.992C110.305 961.512 111.63 962.367 112.897 963.622C122.598 973.245 108.081 987.18 99.0382 977.479C96.2407 974.479 95.5759 971.089 96.2733 968.121C88.0052 975.134 82.7662 985.6 82.7662 997.332C82.7662 1004.8 84.8913 1011.75 88.5607 1017.62C89.3364 1016.1 90.5815 1014.83 92.0846 1014.07C89.372 1012.35 87.464 1009.32 87.6156 1005C88.0001 994.024 100.366 991.319 105.877 997.498C106.763 993.581 110.005 990.231 115.716 990.191C129.378 990.136 128.967 1010.25 115.713 1009.79C112.511 1009.68 110.066 1008.47 108.381 1006.72C107.767 1011.69 104.412 1014.57 100.569 1015.45C100.714 1015.58 100.859 1015.7 101.003 1015.84C101.829 1016.66 102.42 1017.52 102.83 1018.4C106.239 1016.16 110.975 1016.02 115.088 1020.1C120.31 1025.28 118.512 1031.7 114.333 1035.02C116.549 1035.42 118.796 1035.61 121.047 1035.62C125.726 1035.62 130.202 1034.78 134.342 1033.26C132.838 1032.77 131.358 1031.85 130 1030.39C124.796 1024.81 126.966 1017.88 131.59 1014.84C129.693 1006.49 136.503 998.391 144.547 998.523C147.695 998.574 151.03 999.886 154.107 1002.94C155.864 1004.68 157.033 1006.53 157.712 1008.39C158.786 1004.8 159.332 1001.08 159.33 997.333C159.33 976.134 142.247 959.05 121.048 959.05L121.049 959.051ZM135.343 973.837C138.421 973.818 141.485 975.63 142.634 979.85C145.461 990.239 130.067 994.029 127.718 983.847C126.323 977.802 130.846 973.864 135.342 973.837H135.343ZM41.5797 982.876C22.2563 996.237 11.2787 1013.77 0 1031.15C20.2593 1042.53 40.7374 1052.83 63.3212 1052.59C72.3619 1046.52 80.5658 1039.6 88.3277 1032.12C84.2992 1028.33 80.9542 1023.87 78.4397 1018.95L53.7144 1026.34L50.9911 1017.23L74.9839 1010.06C73.8367 1005.91 73.2563 1001.63 73.2586 997.332C73.2586 997.107 73.2637 996.882 73.2672 996.656C62.5959 992.921 52.043 988.445 41.5787 982.875L41.5797 982.876ZM164.316 1017.6C162.759 1020.91 160.828 1024.03 158.561 1026.9L181.842 1049.66L175.197 1056.46L151.961 1033.74C148.673 1036.54 145.022 1038.88 141.108 1040.7C144.022 1052.15 146.094 1063.85 146.722 1075.84C165.98 1085.09 186.536 1087.85 207.847 1086.85C208.817 1064.57 206.017 1043.43 196.289 1024.37C185.441 1021.79 174.796 1019.62 164.316 1017.6H164.316ZM96.0556 1038.04C87.2723 1046.52 77.8512 1054.42 67.2693 1061.38C69.8003 1080.58 77.8583 1099.79 87.847 1119C106.713 1106.39 124.044 1092.56 137.165 1075.35C136.511 1064.75 134.577 1054.28 131.881 1043.88C126.944 1045.03 121.855 1045.39 116.806 1044.93L109.812 1075.82L100.542 1073.72L107.463 1043.15C103.452 1041.96 99.6167 1040.24 96.055 1038.04L96.0556 1038.04Z" fill="black"/>
</svg>
